#!OML:ASF F:\VICON\USERDATA\INSTALL\Justin_Nancy\Justin_Nancy.ASF
:FULLY-SPECIFIED
:DEGREES
165
root -0.768873 16.6137 33.006 11.5373 -8.89784 -3.53
lowerback 13.3961 2.99952 7.81927
upperback 0.45577 5.31992 2.35098
thorax -6.54647 2.38062 -2.87032
lowerneck -22.751 -5.5508 -8.96572
upperneck 3.14361 -5.40687 5.53099
head 4.8885 -2.3986 2.60574
rclavicle -1.55052e-014 2.22639e-014
rhumerus -26.4974 28.2566 -93.9484
rradius 129.871
rwrist -20.8872
rhand -16.4747 29.2769
rfingers 7.12502
rthumb 9.74214 -0.477743
lclavicle -1.55052e-014 2.22639e-014
lhumerus -67.9395 -12.4346 84.1671
lradius 85.2631
lwrist 40.8136
lhand -29.3581 15.3355
lfingers 7.12502
lthumb -2.69759 45.2982
rfemur 8.3873 -1.75627 23.7183
rtibia 27.2812
rfoot -6.98478 -6.88302
rtoes -29.43
lfemur -57.5741 11.1046 -18.0652
ltibia 85.3193
lfoot 0.921989 0.859928
ltoes -5.19567
166
root -0.757356 16.6991 33.7439 11.7188 -9.10928 -3.05354
lowerback 12.1031 3.354 7.63203
upperback 0.503165 5.61231 2.08056
thorax -5.73084 2.56686 -2.99946
lowerneck -22.8391 -5.63361 -8.95687
upperneck 3.39707 -5.51556 5.52553
head 4.98927 -2.45152 2.58694
rclavicle -7.15625e-014 -4.77083e-015
rhumerus -26.3767 28.5846 -93.9448
rradius 130.849
rwrist -19.4786
rhand -17.0567 28.7065
rfingers 7.12502
rthumb 9.18062 -1.0737
lclavicle -7.15625e-014 -4.77083e-015
lhumerus -68.7953 -11.9251 84.6046
lradius 86.0062
lwrist 40.4113
lhand -28.5205 14.771
lfingers 7.12502
lthumb -1.88866 44.7424
rfemur 11.4395 -1.14649 22.1373
rtibia 24.0999
rfoot 0.00409338 -4.31957
rtoes -27.1506
lfemur -57.5672 10.3563 -18.9108
ltibia 80.3885
lfoot -0.310686 1.01561
ltoes -4.41331
167
root -0.759373 16.7543 34.437 12.0226 -8.19602 -2.50067
lowerback 11.1174 3.3233 7.3751
upperback 0.181084 5.46227 1.96963
thorax -5.54888 2.50377 -2.8921
lowerneck -22.5798 -5.66209 -9.04448
upperneck 3.78904 -5.55159 5.41019
head 5.0775 -2.48537 2.55978
rclavicle 1.47101e-014 7.95139e-015
rhumerus -26.8442 28.6151 -94.0093
rradius 131.658
rwrist -18.532
rhand -16.975 28.4937
rfingers 7.12502
rthumb 9.25948 -1.28296
lclavicle 1.47101e-014 7.95139e-015
lhumerus -69.862 -11.2848 85.1925
lradius 86.5361
lwrist 41.125
lhand -27.5436 14.936
lfingers 7.12502
lthumb -0.945066 44.9137
rfemur 14.1952 -0.59046 21.2385
rtibia 21.0508
rfoot 8.68535 -3.66801
rtoes -24.8973
lfemur -57.695 8.83981 -19.6483
ltibia 75.2377
lfoot -1.68381 0.506094
ltoes -5.91755
168
root -0.763344 16.7968 35.1284 12.2217 -7.172 -2.26741
lowerback 10.3995 3.25615 7.52884
upperback -0.248626 5.34884 1.85114
thorax -5.58842 2.43401 -3.04948
lowerneck -22.4668 -5.71491 -9.12338
upperneck 4.6705 -5.64115 5.46896
head 5.35426 -2.53364 2.57563
rclavicle 3.18055e-014 0
rhumerus -27.7124 27.8973 -94.1939
rradius 132.314
rwrist -18.12
rhand -16.1736 29.2031
rfingers 7.12502
rthumb 10.0327 -0.537803
lclavicle 3.18055e-014 0
lhumerus -70.9331 -10.7242 85.6235
lradius 87.06
lwrist 42.4155
lhand -26.7042 14.9676
lfingers 7.12502
lthumb -0.13443 44.9473
rfemur 16.7471 0.775875 21.1831
rtibia 18.7563
rfoot 17.0065 -4.01841
rtoes -27.407
lfemur -57.3494 7.49616 -19.947
ltibia 69.8791
lfoot -2.91269 -0.370018
ltoes -8.44915
169
root -0.77922 16.8671 35.8049 12.1901 -6.32322 -1.9429
lowerback 10.165 3.21456 7.30564
upperback -0.571598 5.26379 1.77213
thorax -5.82019 2.38246 -2.99464
lowerneck -22.3397 -5.75146 -9.21295
upperneck 5.28977 -5.70742 5.57624
head 5.54587 -2.5655 2.614
rclavicle 6.67916e-014 4.77083e-015
rhumerus -28.8245 27.7151 -94.5443
rradius 132.672
rwrist -17.8323
rhand -16.6949 28.7155
rfingers 7.12502
rthumb 9.52975 -1.04901
lclavicle 6.67916e-014 4.77083e-015
lhumerus -71.6558 -9.91478 85.9016
lradius 87.578
lwrist 43.5052
lhand -25.7194 15.2135
lfingers 7.12502
lthumb 0.816794 45.1917
rfemur 18.6896 3.21008 21.7258
rtibia 18.0246
rfoot 23.5342 -4.0954
rtoes -18.1534
lfemur -56.4964 6.27284 -20.203
ltibia 64.1858
lfoot -3.28866 -1.43937
ltoes -10.2755
